<?xml version="1.0" encoding="iso-8859-1"?>
<!-- Uploaded to: SVG Repo, www.svgrepo.com, Generator: SVG Repo Mixer Tools -->
<!DOCTYPE svg PUBLIC "-//W3C//DTD SVG 1.1//EN" "http://www.w3.org/Graphics/SVG/1.1/DTD/svg11.dtd">
<svg fill="#000000" version="1.1" id="Capa_1" xmlns="http://www.w3.org/2000/svg" xmlns:xlink="http://www.w3.org/1999/xlink" 
	 width="800px" height="800px" viewBox="0 0 31.471 31.471"
	 xml:space="preserve">
<g>
	<path d="M0,6.074v19.322h31.471V6.074H0z M30.223,22.398c-3.193-0.277-5.707-2.961-5.707-6.225c0-3.265,2.514-5.948,5.707-6.225
		V22.398z M15.255,18.002c-1.048-0.221-1.839-1.152-1.839-2.267c0-1.115,0.791-2.046,1.839-2.268V18.002z M16.215,13.469
		c1.049,0.222,1.838,1.153,1.838,2.267c0,1.113-0.789,2.045-1.838,2.268V13.469z M1.248,9.563c3.001,0.456,5.309,3.046,5.309,6.172
		s-2.308,5.715-5.309,6.172V9.563z M1.248,23.162c3.689-0.467,6.557-3.611,6.557-7.427c0-3.815-2.867-6.96-6.557-7.427V7.322h14.007
		v5.184c-1.579,0.234-2.799,1.586-2.799,3.229c0,1.644,1.22,2.996,2.799,3.229v5.184H1.248V23.162z M16.215,24.148v-5.184
		c1.578-0.235,2.797-1.589,2.797-3.229c0-1.643-1.219-2.995-2.797-3.229V7.322h14.008v1.38c-3.882,0.28-6.955,3.521-6.955,7.472
		c0,3.951,3.073,7.191,6.955,7.474v0.502L16.215,24.148L16.215,24.148z"/>
</g>
</svg>